Coordinates
version=1
nRows=6
nColumns=34
inDegrees=yes

Units are S.I. units (second, meters, Newtons, ...)
If the header above contains a line with 'inDegrees', this indicates whether rotational values are in degrees (yes) or radians (no).

endheader
time	pelvis_tilt	pelvis_list	pelvis_rotation	pelvis_tx	pelvis_ty	pelvis_tz	hip_flexion_r	hip_adduction_r	hip_rotation_r	knee_angle_r	ankle_angle_r	subtalar_angle_r	mtp_angle_r	hip_flexion_l	hip_adduction_l	hip_rotation_l	knee_angle_l	ankle_angle_l	subtalar_angle_l	mtp_angle_l	lumbar_extension	lumbar_bending	lumbar_rotation	arm_flex_r	arm_add_r	arm_rot_r	elbow_flex_r	pro_sup_r	arm_flex_l	arm_add_l	arm_rot_l	elbow_flex_l	pro_sup_l
      2.33333330	     -1.25110589	      1.71281826	     -2.35560154	      1.81729478	      0.92141827	     -0.17202242	     -1.66460905	     -6.74907694	      0.62511829	      0.00000000	      2.70467112	    -16.94198463	      0.00000000	     -4.11699737	     -4.10157932	     -4.41036651	      0.00000000	      3.03505898	     -4.65022261	      0.00000000	     -7.80927987	     -1.19389578	     -0.42219888	      9.67204459	     -3.73941938	     33.40673369	     79.52569622	     86.45802683	      8.73516539	     -9.71391063	     34.67691034	     65.30187106	     81.10182759
      2.35000000	     -1.27130157	      1.70437741	     -2.41940143	      1.81699413	      0.92109019	     -0.17186752	     -1.58231966	     -6.74815359	      0.55478541	      0.00000000	      2.67395021	    -16.92210313	      0.00000000	     -4.09872904	     -4.09045860	     -4.38627347	      0.00000000	      3.07678109	     -4.61931557	      0.00000000	     -7.81894912	     -1.19434191	     -0.46444630	      9.68351293	     -3.77957338	     33.39551449	     79.55662181	     86.42725700	      8.78075210	     -9.68988364	     34.69115246	     65.32855410	     81.09138165
      2.36666670	     -1.27013164	      1.69956443	     -2.41516179	      1.81687292	      0.92067046	     -0.17162988	     -1.57998647	     -6.74782888	      0.55420314	      0.00000000	      2.67328560	    -16.92142835	      0.00000000	     -4.09973629	     -4.08582181	     -4.38661821	      0.00000000	      3.07748958	     -4.61907011	      0.00000000	     -7.81913472	     -1.19401191	     -0.46396509	      9.68399426	     -3.77997470	     33.39543869	     79.55712963	     86.42675588	      8.78040813	     -9.68962473	     34.69155031	     65.32877664	     81.09121720
      2.38333330	     -1.31663245	      1.68631812	     -2.31762491	      1.81663146	      0.92080846	     -0.17151958	     -1.52689791	     -6.70834252	      0.45438548	      0.00000000	      2.60879752	    -16.88695707	      0.00000000	     -4.00595647	     -4.10855160	     -4.41185324	      0.00000000	      3.15298538	     -4.60157383	      0.00000000	     -7.85707316	     -1.18801283	     -0.41376271	      9.75721803	     -3.79888665	     33.38538167	     79.60886706	     86.37997703	      8.76376361	     -9.66841203	     34.72805257	     65.35468975	     81.07611761
      2.40000000	     -1.31598562	      1.68552553	     -2.31870108	      1.81668023	      0.92129802	     -0.17147296	     -1.52436762	     -6.70665005	      0.45320477	      0.00000000	      2.60839282	    -16.88696632	      0.00000000	     -4.00568353	     -4.10686524	     -4.41150126	      0.00000000	      3.15332313	     -4.60113141	      0.00000000	     -7.85660017	     -1.18769797	     -0.41423580	      9.75713400	     -3.79922546	     33.38536011	     79.60926200	     86.37959155	      8.76415295	     -9.66806093	     34.72831950	     65.35510025	     81.07599754
      2.41666670	     -1.32759461	      1.65294645	     -2.40687032	      1.81669619	      0.92178869	     -0.17132525	     -1.46526085	     -6.65613883	      0.35540567	      0.00000000	      2.56059423	    -16.88342750	      0.00000000	     -4.00866612	     -4.12819400	     -4.39436147	      0.00000000	      3.16269015	     -4.56378256	      0.00000000	     -7.86339763	     -1.17730892	     -0.42798487	      9.75367783	     -3.81983290	     33.38508689	     79.62701559	     86.35249472	      8.77259342	     -9.65674890	     34.74871533	     65.37126809	     81.06761098
